<?xml version="1.0" encoding="utf-8"?>
<svg width="64px" height="64px" viewBox="0 0 64 64" version="1.1" xmlns:xlink="http://www.w3.org/1999/xlink" xmlns="http://www.w3.org/2000/svg">
  <desc>Created with Lunacy</desc>
  <g id="icon-/-delivery-copy-2">
    <path d="M17.7419 0.806452L17.7419 0.831371C11.0017 1.2491 5.64516 6.86616 5.64516 13.7097L5.64516 15.3771C4.82424 15.8406 4.41116 16.2213 4.28223 16.3512C4.12814 16.498 4.03226 16.7053 4.03226 16.9355C4.03226 17.3816 4.39256 17.7419 4.83871 17.7419L5.64516 17.7419L5.64516 20.9685C5.64516 25.7346 8.24296 29.9056 12.0968 32.1399L12.0968 35.4853L7.25987 35.4847L7.25964 35.4847C3.25652 35.4847 0 38.7412 0 42.7443L0 42.7445L0.0007875 48.3871C0.0007875 49.2766 0.724153 50 1.61369 50L45.9677 50C46.4139 50 46.7742 49.6397 46.7742 49.1936L46.7742 36.2919C46.7742 36.0927 46.7022 35.9104 46.5828 35.7698L44.2234 32.6216C44.0795 32.402 43.8312 32.2573 43.5484 32.2573L37.9397 32.2573C37.9169 32.2563 37.8939 32.2563 37.8709 32.2573L29.8687 32.2573C29.6915 32.2508 29.514 32.3028 29.367 32.4091C29.296 32.4603 29.2338 32.5227 29.1828 32.5938L26.9203 35.4853L25 35.4849L25 32.1399C28.8538 29.9056 31.4516 25.7346 31.4516 20.9685L31.4516 17.7419L32.2581 17.7419C32.4116 17.7419 32.5549 17.6993 32.677 17.6251C32.72 17.5991 32.7611 17.5687 32.7999 17.534C33.0042 17.3487 33.0916 17.0823 33.0574 16.828C33.0327 16.6412 32.9442 16.4747 32.8145 16.3512C32.6856 16.2212 32.2725 15.8405 31.4516 15.3771L31.4516 13.7097C31.4516 6.86616 26.0951 1.2491 19.3548 0.831371L19.3548 0.806452C19.3548 0.360304 18.9945 0 18.5484 0C18.1022 0 17.7419 0.360304 17.7419 0.806452ZM18.5484 2.41935C12.3224 2.41935 7.25806 7.4837 7.25806 13.7097L7.25806 14.6167C9.43707 13.7547 12.9945 12.904 18.5484 12.904C24.1023 12.904 27.6597 13.7547 29.8387 14.6167L29.8387 13.7097C29.8387 7.4837 24.7744 2.41935 18.5484 2.41935ZM15.3226 8.06452C15.3226 9.84359 16.7693 11.2903 18.5484 11.2903C20.3275 11.2903 21.7742 9.84359 21.7742 8.06452C21.7742 6.28544 20.3275 4.83871 18.5484 4.83871C16.7693 4.83871 15.3226 6.28544 15.3226 8.06452ZM16.9355 8.06452C16.9355 7.17498 17.6588 6.45161 18.5484 6.45161C19.4379 6.45161 20.1613 7.17498 20.1613 8.06452C20.1613 8.95405 19.4379 9.67742 18.5484 9.67742C17.6588 9.67742 16.9355 8.95405 16.9355 8.06452ZM18.5484 14.5161C13.1457 14.5161 9.7882 15.3465 7.82369 16.129L29.2754 16.129C27.3124 15.3474 23.954 14.5161 18.5484 14.5161ZM7.25806 20.9685L7.25806 17.7419L29.8387 17.7419L29.8387 20.9685C29.8387 27.1945 24.7744 32.2589 18.5484 32.2589C12.3224 32.2589 7.25806 27.1945 7.25806 20.9685ZM20.9068 37.0312L23.3871 35.7929L23.3871 32.9303C21.8921 33.5373 20.2585 33.8718 18.5484 33.8718C16.8382 33.8718 15.2047 33.5373 13.7097 32.9303L13.7097 35.7936L16.1894 37.0317L18.2944 36.3321C18.3833 36.3031 18.4737 36.2902 18.5623 36.2919C18.6423 36.293 18.7233 36.306 18.8032 36.3321L20.9068 37.0312ZM34.0369 35.4854L34.4473 33.8702L30.2313 33.8702L28.9674 35.4854L34.0369 35.4854ZM36.1114 33.8702L37.2735 33.8702L37.677 35.4854L35.7011 35.4854L36.1114 33.8702ZM38.9359 33.8702L39.3394 35.4854L44.3556 35.4854L43.1451 33.8702L38.9359 33.8702ZM26.6129 37.0981L24.3834 37.0976L21.3528 38.6107C21.3043 38.637 21.2531 38.6584 21.2001 38.6745C21.1236 38.6977 21.0452 38.7089 20.9685 38.7089L20.9677 38.7089C20.9496 38.7089 20.9314 38.7082 20.9132 38.707C20.8569 38.703 20.7999 38.693 20.7438 38.6771C20.7338 38.6742 20.7238 38.6712 20.7138 38.6679L18.5488 37.9484L16.3838 38.6679C16.3661 38.6736 16.3483 38.6787 16.3305 38.6832C16.2833 38.6952 16.2358 38.703 16.1887 38.7066C16.1778 38.7074 16.1669 38.708 16.156 38.7084Q16.1425 38.7089 16.129 38.7089L16.1282 38.7089C16.0074 38.7089 15.8837 38.6813 15.7695 38.6242L12.7132 37.0983L7.25964 37.0976C4.14606 37.0976 1.6129 39.6307 1.6129 42.7443L1.6129 42.7446L1.61369 48.3865L1.61369 48.3871L26.6129 48.3871L26.6129 37.0981ZM37.9032 39.5153L35.4839 39.5153L35.4839 37.0984L37.9032 37.0984L37.9032 39.5153ZM33.871 40.3218L33.871 37.0984L28.2258 37.0984L28.2258 48.3871L33.0645 48.3871L33.067 48.3871L45.1613 48.3871L45.1613 37.0984L39.5161 37.0984L39.5161 40.3218C39.5161 40.7675 39.1558 41.1282 38.7097 41.1282L34.6774 41.1282C34.6495 41.1282 34.622 41.1268 34.5948 41.1241C34.1876 41.0828 33.871 40.7397 33.871 40.3218ZM18.5724 41.9347C18.1267 41.9347 17.762 41.574 17.762 41.1282C17.762 40.6821 18.1184 40.3218 18.5637 40.3218L18.5724 40.3218C19.0178 40.3218 19.3789 40.6821 19.3789 41.1282C19.3789 41.574 19.0178 41.9347 18.5724 41.9347Z" transform="translate(12.0504 7)" id="Combined-Shape" fill="#2C2B3F" fill-rule="evenodd" stroke="none" />
  </g>
</svg>