<?xml version="1.0" encoding="utf-8"?>
<svg width="64px" height="64px" viewBox="0 0 64 64" version="1.1" xmlns:xlink="http://www.w3.org/1999/xlink" xmlns="http://www.w3.org/2000/svg">
  <desc>Created with Lunacy</desc>
  <g id="icons/content/64-delivery-free">
    <path d="M47.9995 3.36952C47.968 1.50321 46.4453 0 44.5714 0L3.42857 0L3.36952 0.000498352C1.50321 0.0320186 0 1.55475 0 3.42857L0 38.7429L0.000498352 38.8019C0.0320186 40.6682 1.55475 42.1714 3.42857 42.1714L44.5714 42.1714L44.6305 42.1709C46.4968 42.1394 48 40.6167 48 38.7429L48 3.42857L47.9995 3.36952ZM15.4286 13.0286L15.4286 1.88571L3.42857 1.88571C2.59169 1.88571 1.91044 2.55203 1.88637 3.38308L1.88571 3.42857L1.88571 38.7429C1.88571 39.5797 2.55203 40.261 3.38308 40.2851L3.42857 40.2857L44.5714 40.2857C45.4083 40.2857 46.0896 39.6194 46.1136 38.7884L46.1143 38.7429L46.1143 3.42857C46.1143 2.59169 45.448 1.91044 44.6169 1.88637L44.5714 1.88571L32.5714 1.88571L32.5714 13.0286C32.5714 13.6781 32.2045 14.2714 31.6239 14.5621C31.061 14.8435 30.3897 14.7937 29.8749 14.4336L29.8286 14.4L24 10.0286L18.1714 14.4C17.6518 14.7897 16.9567 14.8527 16.3761 14.5621C15.8112 14.2793 15.4486 13.71 15.4294 13.0811L15.4286 13.0286ZM17.3143 1.88589L30.6857 1.88589L30.6857 12.6859L24 7.67143L17.3143 12.6859L17.3143 1.88589ZM11.7429 20.0571C14.3465 20.0571 16.4571 22.1678 16.4571 24.7714L16.4571 31.6286C16.4571 34.2322 14.3465 36.3429 11.7429 36.3429C9.13923 36.3429 7.02857 34.2322 7.02857 31.6286L7.02857 24.7714C7.02857 22.1678 9.13923 20.0571 11.7429 20.0571ZM30.226 24.6C30.226 22.4698 28.4991 20.7429 26.3688 20.7429L22.1143 20.7429L22.0771 20.7436C21.621 20.7631 21.2571 21.1391 21.2571 21.6L21.2571 26.7429L19.5429 26.7429L19.5057 26.7436C19.0495 26.7631 18.6857 27.1391 18.6857 27.6L18.6865 27.6372C18.706 28.0933 19.0819 28.4571 19.5429 28.4571L21.2571 28.4571L21.2571 30.3429L19.5429 30.3429L19.5057 30.3436C19.0495 30.3631 18.6857 30.7391 18.6857 31.2C18.6857 31.6734 19.0695 32.0571 19.5429 32.0571L21.2571 32.0571L21.2571 34.6286L21.2579 34.6658C21.2774 35.1219 21.6534 35.4857 22.1143 35.4857L22.1515 35.4849C22.6076 35.4655 22.9714 35.0895 22.9714 34.6286L22.9714 32.0571L25.5117 32.0571L25.5489 32.0564C26.005 32.0369 26.3688 31.6609 26.3688 31.2C26.3688 30.7266 25.9851 30.3429 25.5117 30.3429L22.9714 30.3429L22.9714 28.4571L26.3688 28.4571L26.4326 28.4566C28.5334 28.4226 30.226 26.7089 30.226 24.6ZM11.7429 21.7714C10.1048 21.7714 8.77342 23.0842 8.74338 24.7151L8.74286 24.7714L8.74286 31.6286C8.74286 33.2854 10.086 34.6286 11.7429 34.6286C13.3809 34.6286 14.7123 33.3158 14.7423 31.6849L14.7429 31.6286L14.7429 24.7714C14.7429 23.1146 13.3997 21.7714 11.7429 21.7714ZM26.3688 26.7429L22.9714 26.7429L22.9714 22.4571L26.3688 22.4571L26.4217 22.4578C27.5807 22.4858 28.5117 23.4342 28.5117 24.6C28.5117 25.7835 27.5523 26.7429 26.3688 26.7429ZM40.2857 26.7429C40.7588 26.7429 41.1429 27.1269 41.1429 27.6C41.1429 28.0731 40.7588 28.4571 40.2857 28.4571C39.8126 28.4571 39.4286 28.0731 39.4286 27.6C39.4286 27.1269 39.8126 26.7429 40.2857 26.7429ZM41.1429 34.4571C41.1429 34.9306 40.7592 35.3143 40.2857 35.3143C39.8123 35.3143 39.4286 34.9306 39.4286 34.4571L39.4286 31.0286C39.4286 30.5551 39.8123 30.1714 40.2857 30.1714C40.7592 30.1714 41.1429 30.5551 41.1429 31.0286L41.1429 34.4571ZM36 32.7429C36 32.2694 36.3837 31.8857 36.8571 31.8857C37.3306 31.8857 37.7143 32.2694 37.7143 32.7429L37.7143 34.4571C37.7143 34.9306 37.3306 35.3143 36.8571 35.3143C36.3837 35.3143 36 34.9306 36 34.4571L36 32.7429Z" transform="translate(8 11)" id="Combined-Shape" fill="#2C2B3F" fill-rule="evenodd" stroke="none" />
  </g>
</svg>