<?xml version="1.0" encoding="utf-8"?>
<svg width="64px" height="64px" viewBox="0 0 64 64" version="1.1" xmlns:xlink="http://www.w3.org/1999/xlink" xmlns="http://www.w3.org/2000/svg">
  <desc>Created with Lunacy</desc>
  <g id="icon-/-guarantee-copy">
    <path d="M7.5809 29.8066L0.0809023 46.6816C-0.0480039 46.9717 -0.0216367 47.3071 0.151215 47.5734C0.324433 47.8396 0.619965 48 0.93747 48L47.0625 48C47.38 48 47.6755 47.8396 47.8487 47.5734C48.0216 47.3071 48.0479 46.9717 47.919 46.6816C47.221 45.111 41.1185 31.3799 40.419 29.8066C40.2685 29.4683 39.9331 29.25 39.5625 29.25L30.8529 29.25C35.6378 22.4996 38.0625 17.3943 38.0625 14.0625C38.0625 6.30835 31.7541 0 24 0C16.2458 0 9.93747 6.30835 9.93747 14.0625C9.93747 17.3943 12.3622 22.4996 17.1471 29.25L8.43747 29.25C8.06686 29.25 7.73141 29.4683 7.5809 29.8066ZM36.1875 14.0625C36.1875 7.34216 30.7203 1.875 24 1.875C17.2796 1.875 11.8125 7.34216 11.8125 14.0625C11.8125 17.139 14.6261 22.6688 19.7347 29.6331C21.1106 31.5055 22.5351 33.3285 23.8601 34.9354C23.93 34.9618 23.9959 34.9951 24.0567 35.0361C27.6405 30.7013 36.1875 19.6073 36.1875 14.0625ZM33.375 14.0625C33.375 8.89307 29.1694 4.6875 24 4.6875C22.679 4.6875 21.3552 4.97021 20.1716 5.50488C19.6999 5.71765 19.4901 6.27319 19.7032 6.74487C19.916 7.21655 20.4712 7.42676 20.9432 7.21326C21.8862 6.78772 22.9435 6.5625 24 6.5625C28.1356 6.5625 31.5 9.92688 31.5 14.0625C31.5 17.6847 28.4864 21.5625 24 21.5625C19.8643 21.5625 16.5 18.1981 16.5 14.0625C16.5 13.3945 16.5952 12.6782 16.7611 12.0974C16.9035 11.5994 16.615 11.0804 16.1173 10.9384C15.6192 10.7959 15.1003 11.0845 14.9582 11.5822C14.7466 12.3237 14.625 13.2275 14.625 14.0625C14.625 19.2319 18.8305 23.4375 24 23.4375C29.3477 23.4375 33.375 18.9547 33.375 14.0625ZM18.375 8.4375C18.375 8.95496 17.9549 9.375 17.4375 9.375C16.9288 9.375 16.5 8.96228 16.5 8.4375C16.5 7.92004 16.92 7.5 17.4375 7.5C17.9626 7.5 18.375 7.92993 18.375 8.4375ZM10.3791 31.125L15.7295 36.4753C15.9052 36.6511 16.1436 36.75 16.3923 36.75L22.9303 36.75C23.1555 37.0181 23.2822 37.1656 23.2892 37.1737C23.6631 37.6084 24.3365 37.6088 24.7108 37.1737C24.7177 37.1656 24.8445 37.0184 25.0697 36.75L41.4532 36.75L42.8697 39.9375L21.5625 39.9375C21.3138 39.9375 21.0754 40.0364 20.8996 40.2122L14.9864 46.125L10.7007 46.125L14.7253 42.1003C15.0915 41.7345 15.0915 41.1409 14.7253 40.7747L7.8248 33.8741L9.04684 31.125L10.3791 31.125ZM18.5053 31.125C19.5846 32.5833 20.5916 33.8723 21.3951 34.875L16.7809 34.875L13.0309 31.125L18.5053 31.125ZM26.6048 34.875L40.6197 34.875L38.9531 31.125L29.4946 31.125C28.4154 32.5833 27.4083 33.8723 26.6048 34.875ZM12.7364 41.4375L7.00888 35.71L2.37997 46.125L8.04892 46.125L12.7364 41.4375ZM17.6385 46.125L21.951 41.8125L43.7032 41.8125L45.62 46.125L17.6385 46.125Z" transform="translate(8.000031 8)" id="Combined-Shape" fill="#2C2B3F" fill-rule="evenodd" stroke="none" />
  </g>
</svg>