<?xml version="1.0" encoding="utf-8"?>
<svg width="64px" height="64px" viewBox="0 0 64 64" version="1.1" xmlns:xlink="http://www.w3.org/1999/xlink" xmlns="http://www.w3.org/2000/svg">
  <desc>Created with Lunacy</desc>
  <g id="icon-/-Installation-Copy">
    <path d="M37.981 11.2649C37.9851 11.2894 37.9893 11.313 37.9909 11.3367C37.9926 11.3603 38 11.3831 38 11.4075L38 32.5926C38.0001 32.8808 37.8458 33.1475 37.5944 33.2942L19.4205 43.8867C19.3992 43.8969 19.3774 43.9059 19.3552 43.9136C19.3313 43.925 19.3081 43.9348 19.2833 43.9438C19.1021 44.0187 18.8979 44.0187 18.7167 43.9438C18.6919 43.9348 18.6687 43.925 18.6448 43.9136C18.6226 43.9059 18.6008 43.8969 18.5795 43.8867L0.405609 33.2942C0.154169 33.1475 -0.000103209 32.8808 0 32.5926L0 11.4075C0.000413095 11.1189 0.155717 10.852 0.408087 10.706L18.582 0.113437C18.8413 -0.0378123 19.1636 -0.0378123 19.423 0.113437L37.5969 10.706C37.6126 10.7158 37.625 10.7288 37.6398 10.7394C37.6587 10.7526 37.6769 10.7668 37.6943 10.7818C37.7651 10.8369 37.8259 10.9032 37.8744 10.9781C37.8786 10.9838 37.8877 10.9871 37.8877 10.9928L37.8877 10.9985C37.9342 11.0813 37.9658 11.1714 37.981 11.2649ZM13.0794 5.21171L20.2317 9.38029C20.6193 9.6176 21.1286 9.50007 21.3692 9.11782C21.6098 8.73547 21.4907 8.23314 21.1031 7.99582C21.0931 7.98971 21.083 7.9838 21.0727 7.9781L14.7043 4.26582L19 1.7619L35.5498 11.4076L31.2542 13.9116L23.5517 9.42195C23.1589 9.19288 22.6522 9.32132 22.42 9.70876C22.1878 10.0962 22.318 10.596 22.7108 10.8251L29.6301 14.8584L25.3344 17.3623L8.78378 7.71655L13.0794 5.21171ZM36.3478 32.1274L19.8261 41.7568L19.8261 39.1111C19.8261 38.6611 19.4562 38.2963 19 38.2963C18.5438 38.2963 18.1739 38.6611 18.1739 39.1111L18.1739 41.7568L1.65217 32.1274L1.65217 11.8728L7.1597 8.66244L23.7087 18.309L19 21.0533L4.04287 12.3348C3.65006 12.1057 3.14336 12.2342 2.91113 12.6216C2.6789 13.0091 2.80911 13.5088 3.20191 13.7379L18.1739 22.4653L18.1739 35.8519C18.1739 36.3019 18.5438 36.6667 19 36.6667C19.4562 36.6667 19.8261 36.3019 19.8261 35.8519L19.8261 22.4653L24.5075 19.7365L24.5075 25.6423C24.5074 26.0923 24.8772 26.4572 25.3334 26.4573C25.4814 26.4573 25.6267 26.4182 25.7541 26.3438L31.6738 22.8964C31.9253 22.7497 32.0795 22.483 32.0794 22.1948L32.0794 15.3235L36.3478 12.8351L36.3478 32.1274ZM30.4273 21.7271L30.4273 16.2858L26.1597 18.7734L26.1597 24.2147L30.4273 21.7271ZM4 26C3.44775 26 3 26.3731 3 26.8333L3 30.1667C3 30.6269 3.44775 31 4 31C4.55225 31 5 30.6269 5 30.1667L5 26.8333C5 26.3731 4.55225 26 4 26ZM6 28.8333C6 28.3731 6.44775 28 7 28C7.55225 28 8 28.3731 8 28.8333L8 32.1667C8 32.6269 7.55225 33 7 33C6.44775 33 6 32.6269 6 32.1667L6 28.8333Z" transform="translate(13 10)" id="Combined-Shape" fill="#2C2B3F" fill-rule="evenodd" stroke="none" />
  </g>
</svg>