<?xml version="1.0" encoding="utf-8"?>
<svg width="64px" height="64px" viewBox="0 0 64 64" version="1.1" xmlns:xlink="http://www.w3.org/1999/xlink" xmlns="http://www.w3.org/2000/svg">
  <desc>Created with Lunacy</desc>
  <g id="icon-/-Installation">
    <path d="M39.5782 42.5143C39.5782 42.1086 39.9071 41.7796 40.313 41.7796C40.7188 41.7796 41.0477 42.1086 41.0476 42.5142L41.0476 45.7834C41.0476 47.0056 40.0403 47.9999 38.8024 47.9999L11.158 47.9999C9.91997 47.9999 8.91262 47.0056 8.91262 45.7834L8.91262 22.7562C8.59134 22.8957 8.24231 22.9714 7.88569 22.9714C7.41262 22.9714 6.95934 22.8457 6.56325 22.6102C6.16725 22.8457 5.71388 22.9714 5.24081 22.9714C4.76775 22.9714 4.31437 22.8457 3.91838 22.6102C3.52237 22.8457 3.069 22.9714 2.59594 22.9714C1.16456 22.9714 0 21.8068 0 20.3754L0 10.1877C0 9.78197 0.328875 9.453 0.734719 9.453C1.14056 9.453 1.46944 9.78197 1.46944 10.1877L1.46944 20.3755C1.46944 20.9966 1.97475 21.502 2.59594 21.502C2.80687 21.502 3.00834 21.4432 3.18366 21.3352L3.18366 17.3498C3.18366 16.9441 3.51262 16.6151 3.91838 16.6151C4.32422 16.6151 4.65309 16.9441 4.65309 17.3498L4.65309 21.3352C4.82841 21.4432 5.02978 21.502 5.24081 21.502C5.54353 21.502 5.82769 21.3833 6.04116 21.1677C6.17906 21.0283 6.36712 20.9498 6.56325 20.9498C6.75937 20.9498 6.94744 21.0283 7.08534 21.1677C7.29881 21.3833 7.58297 21.502 7.88569 21.502C8.24484 21.502 8.57447 21.335 8.79028 21.0435C8.82591 20.9952 8.86716 20.9523 8.91253 20.9149L8.91253 5.10619C8.91253 3.10087 7.24303 1.46934 5.19103 1.46934C3.13884 1.46934 1.46934 3.10087 1.46944 5.10619L1.46944 6.75919C1.46944 7.16494 1.14056 7.49391 0.734719 7.49391C0.328875 7.49391 0 7.16494 0 6.75919L0 5.10619C0 2.29069 2.32875 0 5.19103 0L35.8567 0C38.7188 0 41.0476 2.29069 41.0476 5.10619L41.0476 39.5754C41.0476 39.9812 40.7187 40.3102 40.3129 40.3102C39.907 40.3102 39.5782 39.9812 39.5782 39.5754L39.5782 5.10619C39.5782 3.10087 37.9087 1.46934 35.8567 1.46934L8.83125 1.46934C9.78797 2.39606 10.3819 3.68409 10.3819 5.10619L10.3819 45.7835C10.3819 46.1953 10.7301 46.5306 11.1579 46.5306L38.8024 46.5306C39.2302 46.5306 39.5782 46.1955 39.5782 45.7835L39.5782 42.5143ZM19.9124 8.25591C19.9124 6.07088 22.2986 4.35919 25.3448 4.35919C28.3911 4.35919 30.7772 6.07078 30.7773 8.25591C30.7773 10.441 28.391 12.1529 25.3448 12.1528C22.2986 12.1528 19.9124 10.4411 19.9124 8.25591ZM21.3818 8.25591C21.3818 9.57178 23.1966 10.6836 25.3448 10.6835C27.493 10.6835 29.3078 9.57178 29.3078 8.25591C29.3078 6.94012 27.4931 5.82853 25.3448 5.82853C23.1967 5.82853 21.3818 6.94012 21.3818 8.25591ZM15.6258 14.4489L34.7278 14.4489C35.1337 14.4489 35.4625 14.7779 35.4625 15.1837C35.4625 15.5894 35.1337 15.9184 34.7278 15.9184L15.6258 15.9184C15.2199 15.9184 14.8911 15.5894 14.8911 15.1837C14.8911 14.7779 15.2199 14.4489 15.6258 14.4489ZM15.6258 19.3469L20.4013 19.3469C20.8072 19.3469 21.136 19.6759 21.136 20.0816C21.136 20.4874 20.8072 20.8163 20.4013 20.8163L15.6258 20.8163C15.2199 20.8163 14.8911 20.4874 14.8911 20.0816C14.8911 19.6759 15.2199 19.3469 15.6258 19.3469ZM34.7278 19.3469L25.6666 19.3469C25.2607 19.3469 24.9319 19.6759 24.9319 20.0816C24.9319 20.4874 25.2607 20.8163 25.6666 20.8163L34.7278 20.8163C35.1337 20.8163 35.4625 20.4874 35.4625 20.0816C35.4625 19.6759 35.1337 19.3469 34.7278 19.3469ZM20.4013 23.7551L15.6258 23.7551C15.2199 23.7551 14.8911 24.0841 14.8911 24.4898C14.8911 24.8956 15.2199 25.2246 15.6258 25.2246L20.4013 25.2246C20.8072 25.2246 21.136 24.8956 21.136 24.4898C21.136 24.0841 20.8072 23.7551 20.4013 23.7551ZM25.6666 23.7551L34.7278 23.7551C35.1337 23.7551 35.4625 24.0839 35.4625 24.4898C35.4625 24.8956 35.1337 25.2246 34.7278 25.2246L25.6666 25.2246C25.2607 25.2246 24.9319 24.8956 24.9319 24.4898C24.9319 24.0841 25.2607 23.7551 25.6666 23.7551ZM15.6258 28.1632L20.4013 28.1632C20.8072 28.1632 21.136 28.4921 21.136 28.8979C21.136 29.3036 20.8072 29.6326 20.4013 29.6326L15.6258 29.6326C15.2199 29.6326 14.8911 29.3036 14.8911 28.8979C14.8911 28.4921 15.2199 28.1632 15.6258 28.1632ZM34.7278 28.1632L25.6666 28.1632C25.2607 28.1632 24.9319 28.4921 24.9319 28.8979C24.9319 29.3036 25.2607 29.6326 25.6666 29.6326L34.7278 29.6326C35.1337 29.6326 35.4625 29.3036 35.4625 28.8979C35.4625 28.4921 35.1337 28.1632 34.7278 28.1632ZM20.4013 32.5713L15.6258 32.5713C15.2199 32.5713 14.8911 32.9002 14.8911 33.306C14.8911 33.7118 15.2199 34.0407 15.6258 34.0407L20.4013 34.0407C20.8072 34.0407 21.136 33.7118 21.136 33.306C21.136 32.9002 20.8072 32.5713 20.4013 32.5713ZM34.7278 37.1755L15.6258 37.1755C15.2199 37.1755 14.8911 37.5045 14.8911 37.9102C14.8911 38.316 15.2199 38.645 15.6258 38.645L34.7278 38.645C35.1337 38.645 35.4625 38.316 35.4625 37.9102C35.4625 37.5045 35.1337 37.1755 34.7278 37.1755ZM15.6258 40.898L20.4013 40.898C20.8072 40.898 21.136 41.2269 21.136 41.6327C21.136 42.0384 20.8072 42.3674 20.4013 42.3674L15.6258 42.3674C15.2199 42.3674 14.8911 42.0384 14.8911 41.6327C14.8911 41.2269 15.2199 40.898 15.6258 40.898Z" transform="translate(11.00741 8)" id="Combined-Shape" fill="#2C2B3F" fill-rule="evenodd" stroke="none" />
  </g>
</svg>