<?xml version="1.0" encoding="utf-8"?>
<svg width="64px" height="64px" viewBox="0 0 64 64" version="1.1" xmlns:xlink="http://www.w3.org/1999/xlink" xmlns="http://www.w3.org/2000/svg">
  <desc>Created with Lunacy</desc>
  <g id="icon-/-delivery">
    <path d="M6.012 9.93721L4.688 9.93721C2.103 9.93721 0 12.0402 0 14.6252L0 43.3122C0 45.8972 2.103 48.0002 4.688 48.0002L33.375 48.0002C35.639 48.0002 37.533 46.3862 37.969 44.2502L39.563 44.2502C42.148 44.2502 44.25 42.1472 44.25 39.5622L44.25 37.1252L45.188 37.1252C46.739 37.1252 48 35.8632 48 34.3122L48 25.8752C48 23.8072 46.318 22.1252 44.25 22.1252L44.25 14.6252C44.25 12.0402 42.148 9.93721 39.563 9.93721L35.565 9.93721L25.874 0.24621C25.546 -0.0817896 25.015 -0.0817896 24.688 0.24621L21.657 3.27721L9.535 0.0292104C9.088 -0.0917896 8.628 0.17421 8.508 0.62221L6.012 9.93721ZM20.287 4.64621L9.911 1.86621L5.737 17.4442L6.86 17.4442L9.794 6.49721C9.914 6.05021 10.374 5.78421 10.821 5.90421C11.27 6.02421 11.739 5.96321 12.142 5.73021C12.545 5.49721 12.833 5.12221 12.954 4.67321C13.011 4.45821 13.152 4.27521 13.344 4.16321C13.537 4.05221 13.766 4.02221 13.981 4.07921L19.401 5.53221L20.287 4.64621ZM22.5 4.80521L22.501 4.80521L25.281 2.02521L36.249 12.9922L31.824 17.4172L30.29 17.4172L32.297 15.4102C32.625 15.0822 32.625 14.5512 32.297 14.2232C31.618 13.5452 31.618 12.4402 32.297 11.7612C32.625 11.4342 32.625 10.9032 32.297 10.5752L27.698 5.97621C27.371 5.64921 26.84 5.64921 26.512 5.97621C25.833 6.65521 24.729 6.65521 24.049 5.97621C23.722 5.64921 23.191 5.64921 22.863 5.97621L11.423 17.4172L9.889 17.4172L22.5 4.80521ZM9.002 15.9312L11.224 7.64221C11.833 7.65221 12.438 7.49621 12.981 7.18221C13.523 6.86921 13.96 6.42421 14.257 5.89021L18.032 6.90221L12.554 12.3792L9.002 15.9312ZM23.53 7.68221L13.795 17.4172L27.917 17.4172L30.591 14.7432C29.951 13.6692 29.951 12.3162 30.591 11.2412L27.032 7.68221C25.957 8.32221 24.604 8.32221 23.53 7.68221ZM1.875 14.6252C1.875 15.9972 2.841 16.9952 4.033 17.3222L5.51 11.8122L4.688 11.8122C3.137 11.8122 1.875 13.0742 1.875 14.6252ZM37.859 13.7542L34.167 17.4462L34.313 17.5312C36.45 17.9672 38.063 19.8612 38.063 22.1252L38.063 27.7502L42.375 27.7502L42.375 14.6252C42.375 13.0742 41.114 11.8122 39.563 11.8122L37.44 11.8122L37.705 12.0762C38.346 12.7172 38.432 13.1812 37.859 13.7542ZM4.989 13.7542L5.439 12.0762L4.033 17.3212L4.989 13.7542ZM33.375 46.1252L4.688 46.1252C3.137 46.1252 1.875 44.8632 1.875 43.3122L1.875 18.3172C2.714 18.9412 3.767 19.3122 4.889 19.3122L33.375 19.3122C34.926 19.3122 36.188 20.5742 36.188 22.1252L36.188 27.7502L29.625 27.7502C28.075 27.7502 26.813 29.0112 26.813 30.5622L26.813 34.3122C26.813 35.8632 28.075 37.1252 29.625 37.1252L36.188 37.1252L36.188 43.3122C36.188 44.8632 34.926 46.1252 33.375 46.1252ZM46.125 25.8752C46.125 26.9102 45.286 27.7502 44.25 27.7502L44.25 24.0002C45.284 24.0002 46.125 24.8412 46.125 25.8752ZM45.188 35.2502L29.625 35.2502C29.108 35.2502 28.688 34.8302 28.688 34.3122L28.688 30.5622C28.688 30.0452 29.108 29.6252 29.625 29.6252L44.25 29.6252C44.919 29.6252 45.562 29.4502 46.125 29.1232L46.125 34.3122C46.125 34.8302 45.705 35.2502 45.188 35.2502ZM30.5625 32.4369C30.5625 32.9549 30.9825 33.3749 31.5005 33.3749C32.0185 33.3749 32.4385 32.9549 32.4385 32.4369C32.4385 31.9199 32.0185 31.4999 31.5005 31.4999C30.9825 31.4999 30.5625 31.9199 30.5625 32.4369ZM34.3135 32.4369C34.3135 31.9199 34.7335 31.4999 35.2505 31.4999L39.5625 31.4999C40.0805 31.4999 40.5005 31.9199 40.5005 32.4369C40.5005 32.9549 40.0805 33.3749 39.5625 33.3749L35.2505 33.3749C34.7335 33.3749 34.3135 32.9549 34.3135 32.4369ZM39.563 42.3752C41.114 42.3752 42.375 41.1132 42.375 39.5622L42.375 37.1252L38.063 37.1252L38.063 42.3752L39.563 42.3752Z" transform="translate(7.9995 6.00009)" id="Combined-Shape" fill="#2C2B3F" fill-rule="evenodd" stroke="none" />
  </g>
</svg>