<?xml version="1.0" encoding="utf-8"?>
<svg width="64px" height="64px" viewBox="0 0 64 64" version="1.1" xmlns:xlink="http://www.w3.org/1999/xlink" xmlns="http://www.w3.org/2000/svg">
  <desc>Created with Lunacy</desc>
  <g id="icon-/-guarantee">
    <path d="M45.1872 22.9644L35.801 22.9644L40.2403 18.5252C41.3368 17.4286 41.3368 15.6442 40.2403 14.5477L26.5151 0.822375C25.4184 -0.274219 23.634 -0.274031 22.5374 0.822375L0.822305 22.5375C-0.274102 23.6341 -0.274102 25.4184 0.822305 26.515L11.6649 37.3576L11.6649 45.1872C11.6649 46.738 12.9266 47.9998 14.4775 47.9998L19.5195 47.9998C20.0372 47.9998 20.457 47.58 20.457 47.0623C20.457 46.5446 20.0372 46.1248 19.5195 46.1248L14.4775 46.1248C13.9605 46.1248 13.54 45.7043 13.54 45.1873L13.54 25.777C13.54 25.2601 13.9605 24.8395 14.4775 24.8395L45.1872 24.8395C45.7042 24.8395 46.1247 25.2601 46.1247 25.777L46.1247 45.1873C46.1247 45.7043 45.7042 46.1248 45.1872 46.1248L27.8636 46.1248C27.346 46.1248 26.9261 46.5446 26.9261 47.0623C26.9261 47.58 27.346 47.9998 27.8636 47.9998L45.1873 47.9998C46.7382 47.9998 47.9999 46.7381 47.9999 45.1872L47.9999 25.777C47.9998 24.2262 46.7382 22.9644 45.1872 22.9644ZM2.1483 23.8634C1.78277 24.2289 1.78277 24.8238 2.14821 25.1893L3.56965 26.6107L26.6107 3.56981L25.1892 2.14838C24.8239 1.78294 24.2291 1.78275 23.8634 2.14838L2.1483 23.8634ZM29.6788 20.8317L27.5461 22.9644L27.5461 22.9645L33.149 22.9645L38.9142 17.1994C39.0913 17.0223 39.1888 16.7869 39.1888 16.5365C39.1888 16.2861 39.0913 16.0506 38.9143 15.8735L27.9365 4.89572L4.89555 27.9367L6.61652 29.6574L24.9808 11.2929C25.3471 10.9268 25.9406 10.9268 26.3067 11.2929C26.6728 11.659 26.6728 12.2527 26.3067 12.6187L15.9613 22.9644L19.7692 22.9644L26.1839 16.5497C26.5502 16.1836 27.1437 16.1836 27.5098 16.5497C27.8759 16.9159 27.8759 17.5095 27.5098 17.8756L22.4211 22.9644L24.8945 22.9644L28.3529 19.5059C28.7192 19.1398 29.3126 19.1398 29.6788 19.5059C30.0449 19.872 30.0449 20.4656 29.6788 20.8317ZM28.1375 8.52441C28.3851 8.52441 28.6269 8.62472 28.8012 8.79909C28.9757 8.97347 29.0759 9.21534 29.0759 9.46191C29.0759 9.70847 28.9756 9.95034 28.8012 10.1247C28.6269 10.2991 28.3851 10.3994 28.1375 10.3994C27.8909 10.3994 27.6491 10.2991 27.4756 10.1247C27.3003 9.95034 27.2008 9.70847 27.2008 9.46191C27.2008 9.21534 27.3003 8.97347 27.4756 8.79909C27.6491 8.62472 27.8909 8.5245 28.1375 8.52441ZM17.2501 26.2534L24.0003 26.2534C24.518 26.2534 24.9378 26.6732 24.9378 27.1909L24.9378 31.4995C24.9378 32.0172 24.518 32.437 24.0003 32.437L17.2501 32.437C16.7324 32.437 16.3126 32.0172 16.3126 31.4995L16.3126 27.1909C16.3126 26.6732 16.7324 26.2534 17.2501 26.2534ZM11.6649 34.7058L7.94234 30.9833L11.6649 27.2607L11.6649 34.7058ZM18.1876 30.562L23.0627 30.562L23.0627 28.1284L18.1876 28.1284L18.1876 30.562ZM23.0273 34.5446L17.2881 34.5446C16.7704 34.5446 16.3506 34.9644 16.3506 35.4821C16.3506 35.9998 16.7703 36.4196 17.2881 36.4196L23.0273 36.4196C23.545 36.4196 23.9648 35.9998 23.9648 35.4821C23.9648 34.9644 23.5451 34.5446 23.0273 34.5446ZM26.9109 34.5446L32.6501 34.5446C33.1677 34.5446 33.5876 34.9644 33.5876 35.4821C33.5876 35.9999 33.1678 36.4196 32.6501 36.4196L26.9109 36.4196C26.3932 36.4196 25.9734 35.9998 25.9734 35.4821C25.9734 34.9644 26.3932 34.5446 26.9109 34.5446ZM42.406 34.5446L36.6668 34.5446C36.1491 34.5446 35.7293 34.9644 35.7293 35.4821C35.7293 35.9998 36.1491 36.4196 36.6668 36.4196L42.406 36.4196C42.9237 36.4196 43.3435 35.9998 43.3435 35.4821C43.3435 34.9644 42.9237 34.5446 42.406 34.5446ZM38.8581 38.1975C39.3652 37.9309 39.9418 37.7791 40.5535 37.7791C42.5696 37.7791 44.2098 39.4193 44.2098 41.4354C44.2098 43.4516 42.5696 45.0918 40.5535 45.0918C39.9418 45.0918 39.3653 44.94 38.8581 44.6734C38.351 44.94 37.7743 45.0918 37.1627 45.0918C35.1465 45.0918 33.5064 43.4516 33.5064 41.4354C33.5064 39.4193 35.1465 37.7791 37.1627 37.7791C37.7743 37.7791 38.3509 37.9309 38.8581 38.1975ZM37.3558 43.2058C37.2924 43.2127 37.228 43.2168 37.1626 43.2168C36.1804 43.2168 35.3814 42.4178 35.3814 41.4355C35.3814 40.4533 36.1805 39.6543 37.1626 39.6543C37.228 39.6543 37.2923 39.6583 37.3558 39.6653C37.0641 40.1902 36.8972 40.7936 36.8972 41.4355C36.8972 42.0773 37.0641 42.6809 37.3558 43.2058ZM40.5536 43.2168C40.4882 43.2168 40.4239 43.2127 40.3603 43.2058C40.6521 42.6809 40.819 42.0774 40.819 41.4355C40.819 40.7936 40.6521 40.1902 40.3603 39.6653C40.4238 39.6584 40.4882 39.6543 40.5536 39.6543C41.5358 39.6543 42.3348 40.4533 42.3348 41.4355C42.3349 42.4178 41.5358 43.2168 40.5536 43.2168ZM38.7722 41.4354C38.7722 41.6254 38.8028 41.8081 38.8581 41.9798C38.9134 41.8081 38.944 41.6254 38.944 41.4354C38.944 41.2455 38.9135 41.0628 38.8581 40.891C38.8028 41.0628 38.7722 41.2455 38.7722 41.4354ZM24.0881 46.125L24.1004 46.125C24.6182 46.125 25.0379 46.5448 25.0379 47.0625C25.0379 47.5802 24.6181 48 24.1004 48L24.0881 48C23.5704 48 23.1506 47.5802 23.1506 47.0625C23.1506 46.5448 23.5704 46.125 24.0881 46.125Z" transform="translate(8.000071 6)" id="Combined-Shape" fill="#2C2B3F" fill-rule="evenodd" stroke="none" />
  </g>
</svg>